<svg width="17" height="17" viewBox="0 0 17 17" fill="none" xmlns="http://www.w3.org/2000/svg">
<g clip-path="url(#clip0_2035_964)">
<path d="M13.8259 9.7362C12.8238 10.0172 11.7649 10.0264 10.7581 9.76288C9.75121 9.49934 8.83264 8.97255 8.09671 8.23661C7.36077 7.50068 6.83398 6.58211 6.57044 5.57526C6.3069 4.5684 6.31611 3.50954 6.59712 2.50742C5.60912 2.78242 4.71042 3.31147 3.99051 4.04188C3.27061 4.7723 2.75465 5.67858 2.494 6.67046C2.23336 7.66234 2.23714 8.7052 2.50497 9.69517C2.77279 10.6851 3.29532 11.5877 4.02049 12.3128C4.74567 13.038 5.64819 13.5605 6.63815 13.8284C7.62812 14.0962 8.67098 14.1 9.66286 13.8393C10.6547 13.5787 11.561 13.0627 12.2914 12.3428C13.0219 11.6229 13.5509 10.7242 13.8259 9.7362V9.7362Z" stroke="#09090C" stroke-width="1.02083" stroke-linecap="round" stroke-linejoin="round"/>
</g>
<defs>
<clipPath id="clip0_2035_964">
<rect width="16.3333" height="16.3333" fill="white"/>
</clipPath>
</defs>
</svg>
