<svg width="17" height="17" viewBox="0 0 17 17" fill="none" xmlns="http://www.w3.org/2000/svg">
<g clip-path="url(#clip0_2035_948)">
<path d="M5.10421 14.8021C5.668 14.8021 6.12504 14.345 6.12504 13.7813C6.12504 13.2175 5.668 12.7604 5.10421 12.7604C4.54042 12.7604 4.08337 13.2175 4.08337 13.7813C4.08337 14.345 4.54042 14.8021 5.10421 14.8021Z" fill="#09090C"/>
<path d="M11.7396 14.8021C12.3034 14.8021 12.7604 14.345 12.7604 13.7813C12.7604 13.2175 12.3034 12.7604 11.7396 12.7604C11.1758 12.7604 10.7188 13.2175 10.7188 13.7813C10.7188 14.345 11.1758 14.8021 11.7396 14.8021Z" fill="#09090C"/>
<path d="M2.69879 4.59375H14.1449L12.4605 10.4891C12.4004 10.703 12.2717 10.8913 12.0942 11.025C11.9167 11.1587 11.7002 11.2305 11.478 11.2292H5.36571C5.14348 11.2305 4.92698 11.1587 4.74946 11.025C4.57195 10.8913 4.44326 10.703 4.38316 10.4891L2.07353 2.41172C2.04301 2.30501 1.97854 2.21116 1.88989 2.14438C1.80124 2.07761 1.69324 2.04155 1.58225 2.04166H0.510376" stroke="#09090C" stroke-width="1.02083" stroke-linecap="round" stroke-linejoin="round"/>
</g>
<defs>
<clipPath id="clip0_2035_948">
<rect width="16.3333" height="16.3333" fill="white"/>
</clipPath>
</defs>
</svg>
