<svg width="79" height="22" viewBox="0 0 79 22" fill="none" xmlns="http://www.w3.org/2000/svg">
<path fill-rule="evenodd" clip-rule="evenodd" d="M69.4871 2.5C70.0071 2.20667 70.6137 2.06 71.3071 2.06C71.9604 2.06 72.5471 2.2 73.0671 2.48C73.5871 2.76 74.0271 3.14667 74.3871 3.64C74.7471 4.12 75.0204 4.7 75.2071 5.38C75.4071 6.04667 75.5071 6.77333 75.5071 7.56C75.5071 8.44 75.3871 9.22 75.1471 9.9C74.9204 10.58 74.6137 11.1533 74.2271 11.62C73.8404 12.0867 73.3937 12.4467 72.8871 12.7C72.3804 12.94 71.8537 13.06 71.3071 13.06C70.6137 13.06 70.0071 12.9067 69.4871 12.6C68.9671 12.28 68.5271 11.8667 68.1671 11.36C67.8204 10.84 67.5537 10.2533 67.3671 9.6C67.1937 8.93333 67.1071 8.25333 67.1071 7.56C67.1071 6.82667 67.1937 6.12667 67.3671 5.46C67.5537 4.79333 67.8204 4.20667 68.1671 3.7C68.5271 3.19333 68.9671 2.79333 69.4871 2.5ZM68.2271 14.54C69.1204 14.9267 70.1471 15.12 71.3071 15.12C72.4671 15.12 73.4937 14.9133 74.3871 14.5C75.2937 14.0733 76.0471 13.5133 76.6471 12.82C77.2604 12.1133 77.7271 11.3067 78.0471 10.4C78.3671 9.49333 78.5271 8.54667 78.5271 7.56C78.5271 6.68 78.3937 5.79333 78.1271 4.9C77.8737 3.99333 77.4537 3.18 76.8671 2.46C76.2937 1.72667 75.5471 1.13333 74.6271 0.680001C73.7204 0.226667 72.6137 0 71.3071 0C70.1604 0 69.1404 0.2 68.2471 0.600001C67.3537 0.986667 66.5937 1.52667 65.9671 2.22C65.3537 2.9 64.8804 3.7 64.5471 4.62C64.2271 5.54 64.0671 6.52 64.0671 7.56C64.0671 8.64 64.2271 9.64 64.5471 10.56C64.8671 11.48 65.3337 12.28 65.9471 12.96C66.5737 13.6267 67.3337 14.1533 68.2271 14.54ZM30.7397 13.02C31.4997 13.02 32.1531 12.86 32.6997 12.54C33.2597 12.22 33.7197 11.8 34.0797 11.28C34.4397 10.76 34.6997 10.1733 34.8597 9.52C35.0331 8.86667 35.1197 8.20667 35.1197 7.54C35.1197 6.75333 35.0131 6.02667 34.7997 5.36C34.5997 4.69333 34.2797 4.12 33.8397 3.64C33.3997 3.16 32.8331 2.78667 32.1397 2.52C31.4597 2.24 30.6397 2.1 29.6797 2.1C29.4131 2.1 29.1331 2.11333 28.8397 2.14C28.5597 2.16667 28.2664 2.20667 27.9597 2.26V14.84H25.1397V0.56C26.0331 0.373333 26.8664 0.24 27.6397 0.16C28.4131 0.0800006 29.0931 0.0400007 29.6797 0.0400007C31.0131 0.0400007 32.1997 0.213334 33.2397 0.56C34.2931 0.893334 35.1797 1.38 35.8997 2.02C36.6331 2.66 37.1864 3.44667 37.5597 4.38C37.9464 5.3 38.1397 6.35333 38.1397 7.54C38.1397 8.59333 37.9597 9.58 37.5997 10.5C37.2397 11.42 36.7464 12.22 36.1197 12.9C35.4931 13.58 34.7397 14.1133 33.8597 14.5C32.9931 14.8867 32.0531 15.08 31.0397 15.08C30.8531 15.08 30.6797 15.0733 30.5197 15.06C30.3731 15.06 30.2131 15.0467 30.0397 15.02C29.8664 14.9933 29.6731 14.96 29.4597 14.92C29.2597 14.88 29.0131 14.82 28.7197 14.74C28.7997 14.5667 28.8997 14.38 29.0197 14.18C29.1397 13.98 29.2797 13.7933 29.4397 13.62C29.5997 13.4467 29.7864 13.3067 29.9997 13.2C30.2131 13.08 30.4597 13.02 30.7397 13.02ZM0.660034 14.84H3.44003V0.3H0.660034V14.84ZM10.7933 3.94L11.1133 4.66L17.5333 14.84H20.0533V0.3H17.5333V10.08L17.5733 10.88L17.2933 10.08L11.1533 0.3H8.39332V14.84H10.8333V4.62L10.7933 3.94ZM41.4811 14.84H44.2611V0.3H41.4811V14.84ZM56.1544 2.1C55.3544 2.1 54.6477 2.25333 54.0344 2.56C53.4211 2.85333 52.9011 3.25333 52.4744 3.76C52.0611 4.25333 51.7477 4.83333 51.5344 5.5C51.3211 6.16667 51.2144 6.86 51.2144 7.58C51.2144 8.27333 51.3211 8.94667 51.5344 9.6C51.7477 10.2533 52.0544 10.8333 52.4544 11.34C52.8677 11.8467 53.3744 12.2533 53.9744 12.56C54.5877 12.8667 55.2944 13.02 56.0944 13.02C56.3877 13.02 56.6744 13.0133 56.9544 13C57.2344 12.9733 57.5877 12.9067 58.0144 12.8V8.1H60.5744V14.1C60.2144 14.26 59.8277 14.4067 59.4144 14.54C59.0144 14.66 58.6144 14.76 58.2144 14.84C57.8144 14.92 57.4277 14.98 57.0544 15.02C56.6944 15.06 56.3744 15.08 56.0944 15.08C54.8544 15.08 53.7411 14.8867 52.7544 14.5C51.7811 14.1133 50.9544 13.58 50.2744 12.9C49.5944 12.22 49.0744 11.4267 48.7144 10.52C48.3544 9.6 48.1744 8.62 48.1744 7.58C48.1744 6.52667 48.3611 5.54667 48.7344 4.64C49.1077 3.72 49.6411 2.92 50.3344 2.24C51.0277 1.56 51.8611 1.02667 52.8344 0.64C53.8211 0.24 54.9277 0.0400007 56.1544 0.0400007C56.7144 0.0400007 57.3677 0.106667 58.1144 0.24C58.8611 0.373334 59.6144 0.6 60.3744 0.92L59.6344 2.84C58.8744 2.54667 58.2211 2.35333 57.6744 2.26C57.1277 2.15333 56.6211 2.1 56.1544 2.1ZM21 18.84H0V21.84H21V18.84Z" fill="#1A1A1A"/>
</svg>
